<svg xmlns="http://www.w3.org/2000/svg" xmlns:xlink="http://www.w3.org/1999/xlink" width="1080" zoomAndPan="magnify" viewBox="0 0 810 809.999993" height="1080" preserveAspectRatio="xMidYMid meet" version="1.0"><defs><clipPath id="e70e3d25bb"><path d="M 61.464844 62.714844 L 748.464844 62.714844 L 748.464844 747.464844 L 61.464844 747.464844 Z M 61.464844 62.714844 " clip-rule="nonzero"/></clipPath></defs><g clip-path="url(#e70e3d25bb)"><path fill="#bb8a7b" d="M 405.144531 62.957031 C 215.304688 62.957031 61.464844 216.792969 61.464844 406.632812 C 61.464844 577.132812 185.84375 718.769531 348.609375 745.550781 L 348.609375 512.5625 L 261.128906 512.5625 L 261.128906 410.5 L 348.609375 410.5 L 348.609375 336.410156 C 348.609375 256.070312 413.773438 201.617188 494.113281 201.617188 C 529.820312 201.617188 552.136719 206.972656 552.136719 206.972656 L 552.136719 292.667969 L 494.113281 292.667969 C 470.011719 292.667969 450.375 312.308594 450.375 336.410156 L 450.375 410.5 L 544.105469 410.5 L 531.011719 512.5625 L 450.375 512.5625 L 450.375 747.039062 C 618.492188 724.722656 748.226562 580.703125 748.226562 406.632812 C 748.523438 216.792969 594.6875 62.957031 405.144531 62.957031 Z M 405.144531 62.957031 " fill-opacity="1" fill-rule="nonzero"/></g></svg>