<svg xmlns="http://www.w3.org/2000/svg" xmlns:xlink="http://www.w3.org/1999/xlink" width="1080" zoomAndPan="magnify" viewBox="0 0 810 809.999993" height="1080" preserveAspectRatio="xMidYMid meet" version="1.0"><defs><clipPath id="58a02990cd"><path d="M 62.625 62.625 L 747.375 62.625 L 747.375 747.375 L 62.625 747.375 Z M 62.625 62.625 " clip-rule="nonzero"/></clipPath></defs><g clip-path="url(#58a02990cd)"><path fill="#bb8a7b" d="M 747.390625 405 C 747.390625 410.601562 747.253906 416.203125 746.976562 421.800781 C 746.703125 427.394531 746.292969 432.980469 745.742188 438.558594 C 745.191406 444.136719 744.507812 449.695312 743.683594 455.238281 C 742.863281 460.78125 741.90625 466.296875 740.8125 471.792969 C 739.71875 477.289062 738.492188 482.753906 737.128906 488.191406 C 735.769531 493.625 734.273438 499.023438 732.648438 504.386719 C 731.023438 509.75 729.265625 515.066406 727.375 520.34375 C 725.488281 525.617188 723.472656 530.84375 721.328125 536.019531 C 719.183594 541.199219 716.914062 546.320312 714.519531 551.382812 C 712.125 556.449219 709.605469 561.453125 706.964844 566.394531 C 704.320312 571.335938 701.5625 576.210938 698.679688 581.015625 C 695.800781 585.820312 692.804688 590.554688 689.691406 595.214844 C 686.578125 599.871094 683.351562 604.453125 680.015625 608.953125 C 676.675781 613.453125 673.230469 617.867188 669.675781 622.199219 C 666.121094 626.53125 662.460938 630.773438 658.699219 634.925781 C 654.9375 639.078125 651.074219 643.132812 647.109375 647.09375 C 643.148438 651.058594 639.09375 654.921875 634.941406 658.683594 C 630.789062 662.445312 626.546875 666.105469 622.214844 669.660156 C 617.882812 673.214844 613.46875 676.660156 608.96875 680 C 604.46875 683.335938 599.886719 686.5625 595.230469 689.675781 C 590.570312 692.789062 585.835938 695.785156 581.03125 698.664062 C 576.226562 701.546875 571.351562 704.304688 566.410156 706.949219 C 561.46875 709.589844 556.464844 712.109375 551.398438 714.503906 C 546.335938 716.898438 541.214844 719.167969 536.035156 721.3125 C 530.859375 723.457031 525.632812 725.472656 520.359375 727.359375 C 515.082031 729.25 509.765625 731.003906 504.402344 732.632812 C 499.039062 734.257812 493.640625 735.753906 488.207031 737.113281 C 482.769531 738.476562 477.304688 739.703125 471.808594 740.796875 C 466.3125 741.890625 460.796875 742.847656 455.253906 743.667969 C 449.710938 744.492188 444.152344 745.175781 438.574219 745.726562 C 433 746.277344 427.410156 746.6875 421.816406 746.960938 C 416.21875 747.238281 410.617188 747.375 405.015625 747.375 C 399.414062 747.375 393.8125 747.238281 388.214844 746.960938 C 382.621094 746.6875 377.035156 746.277344 371.457031 745.726562 C 365.878906 745.175781 360.320312 744.492188 354.777344 743.667969 C 349.234375 742.847656 343.71875 741.890625 338.222656 740.796875 C 332.726562 739.703125 327.261719 738.476562 321.824219 737.113281 C 316.390625 735.753906 310.992188 734.257812 305.628906 732.632812 C 300.265625 731.007812 294.949219 729.25 289.671875 727.359375 C 284.398438 725.472656 279.171875 723.457031 273.996094 721.3125 C 268.816406 719.167969 263.695312 716.898438 258.632812 714.503906 C 253.566406 712.109375 248.5625 709.589844 243.621094 706.949219 C 238.679688 704.304688 233.804688 701.546875 229 698.664062 C 224.195312 695.785156 219.460938 692.789062 214.800781 689.675781 C 210.144531 686.5625 205.5625 683.335938 201.0625 680 C 196.5625 676.660156 192.148438 673.214844 187.816406 669.660156 C 183.484375 666.105469 179.242188 662.445312 175.089844 658.683594 C 170.9375 654.921875 166.882812 651.058594 162.921875 647.09375 C 158.957031 643.132812 155.09375 639.078125 151.332031 634.925781 C 147.570312 630.773438 143.910156 626.53125 140.355469 622.199219 C 136.800781 617.867188 133.355469 613.453125 130.015625 608.953125 C 126.679688 604.453125 123.453125 599.871094 120.339844 595.214844 C 117.226562 590.554688 114.230469 585.820312 111.351562 581.015625 C 108.46875 576.210938 105.710938 571.335938 103.066406 566.394531 C 100.425781 561.453125 97.90625 556.449219 95.511719 551.382812 C 93.117188 546.320312 90.847656 541.199219 88.703125 536.019531 C 86.558594 530.84375 84.542969 525.617188 82.65625 520.34375 C 80.765625 515.066406 79.007812 509.75 77.382812 504.386719 C 75.757812 499.023438 74.261719 493.625 72.902344 488.191406 C 71.539062 482.753906 70.3125 477.289062 69.21875 471.792969 C 68.125 466.296875 67.167969 460.78125 66.347656 455.238281 C 65.523438 449.695312 64.839844 444.136719 64.289062 438.558594 C 63.738281 432.980469 63.328125 427.394531 63.054688 421.800781 C 62.777344 416.203125 62.640625 410.601562 62.640625 405 C 62.640625 399.398438 62.777344 393.796875 63.054688 388.199219 C 63.328125 382.605469 63.738281 377.019531 64.289062 371.441406 C 64.839844 365.863281 65.523438 360.304688 66.347656 354.761719 C 67.167969 349.21875 68.125 343.703125 69.21875 338.207031 C 70.3125 332.710938 71.539062 327.246094 72.902344 321.808594 C 74.261719 316.375 75.757812 310.976562 77.382812 305.613281 C 79.007812 300.25 80.765625 294.933594 82.65625 289.65625 C 84.542969 284.382812 86.558594 279.15625 88.703125 273.980469 C 90.847656 268.800781 93.117188 263.679688 95.511719 258.617188 C 97.90625 253.550781 100.425781 248.546875 103.066406 243.605469 C 105.710938 238.664062 108.46875 233.789062 111.351562 228.984375 C 114.230469 224.179688 117.226562 219.445312 120.339844 214.785156 C 123.453125 210.128906 126.679688 205.546875 130.015625 201.046875 C 133.355469 196.546875 136.800781 192.132812 140.355469 187.800781 C 143.910156 183.46875 147.570312 179.226562 151.332031 175.074219 C 155.09375 170.921875 158.957031 166.867188 162.921875 162.90625 C 166.882812 158.941406 170.9375 155.078125 175.089844 151.316406 C 179.242188 147.554688 183.484375 143.894531 187.816406 140.339844 C 192.148438 136.785156 196.5625 133.339844 201.0625 130 C 205.5625 126.664062 210.144531 123.4375 214.800781 120.324219 C 219.460938 117.210938 224.195312 114.214844 229 111.335938 C 233.804688 108.453125 238.679688 105.695312 243.621094 103.050781 C 248.5625 100.410156 253.566406 97.890625 258.632812 95.496094 C 263.695312 93.101562 268.816406 90.832031 273.996094 88.6875 C 279.171875 86.542969 284.398438 84.527344 289.671875 82.640625 C 294.949219 80.75 300.265625 78.992188 305.628906 77.367188 C 310.992188 75.742188 316.390625 74.246094 321.824219 72.886719 C 327.261719 71.523438 332.726562 70.296875 338.222656 69.203125 C 343.71875 68.109375 349.234375 67.152344 354.777344 66.332031 C 360.320312 65.507812 365.878906 64.824219 371.457031 64.273438 C 377.035156 63.722656 382.621094 63.3125 388.214844 63.039062 C 393.8125 62.761719 399.414062 62.625 405.015625 62.625 C 410.617188 62.625 416.21875 62.761719 421.816406 63.039062 C 427.410156 63.3125 433 63.722656 438.574219 64.273438 C 444.152344 64.824219 449.710938 65.507812 455.253906 66.332031 C 460.796875 67.152344 466.3125 68.109375 471.808594 69.203125 C 477.304688 70.296875 482.769531 71.523438 488.207031 72.886719 C 493.640625 74.246094 499.039062 75.742188 504.402344 77.367188 C 509.765625 78.992188 515.082031 80.75 520.359375 82.640625 C 525.632812 84.527344 530.859375 86.542969 536.035156 88.6875 C 541.214844 90.832031 546.335938 93.101562 551.398438 95.496094 C 556.464844 97.890625 561.46875 100.410156 566.410156 103.050781 C 571.351562 105.695312 576.226562 108.453125 581.03125 111.335938 C 585.835938 114.214844 590.570312 117.210938 595.230469 120.324219 C 599.886719 123.4375 604.46875 126.664062 608.96875 130 C 613.46875 133.339844 617.882812 136.785156 622.214844 140.339844 C 626.546875 143.894531 630.789062 147.554688 634.941406 151.316406 C 639.09375 155.078125 643.148438 158.941406 647.109375 162.90625 C 651.074219 166.867188 654.9375 170.921875 658.699219 175.074219 C 662.460938 179.226562 666.121094 183.46875 669.675781 187.800781 C 673.230469 192.132812 676.675781 196.546875 680.015625 201.046875 C 683.351562 205.546875 686.578125 210.128906 689.691406 214.785156 C 692.804688 219.445312 695.800781 224.179688 698.679688 228.984375 C 701.5625 233.789062 704.320312 238.664062 706.964844 243.605469 C 709.605469 248.546875 712.125 253.550781 714.519531 258.617188 C 716.914062 263.679688 719.183594 268.800781 721.328125 273.980469 C 723.472656 279.15625 725.488281 284.382812 727.375 289.65625 C 729.265625 294.933594 731.023438 300.25 732.648438 305.613281 C 734.273438 310.976562 735.769531 316.375 737.128906 321.808594 C 738.492188 327.246094 739.71875 332.710938 740.8125 338.207031 C 741.90625 343.703125 742.863281 349.21875 743.683594 354.761719 C 744.507812 360.304688 745.191406 365.863281 745.742188 371.441406 C 746.292969 377.019531 746.703125 382.605469 746.976562 388.199219 C 747.253906 393.796875 747.390625 399.398438 747.390625 405 Z M 747.390625 405 " fill-opacity="1" fill-rule="nonzero"/></g><path fill="#ffffff" d="M 199.90625 280.207031 C 203.390625 277.902344 207.5625 276.558594 212.054688 276.558594 L 595.949219 276.558594 C 600.984375 276.558594 605.617188 278.25 609.328125 281.089844 L 404.125 392.464844 Z M 615.347656 521.871094 C 617.03125 518.757812 617.984375 515.191406 617.984375 511.40625 L 617.984375 301.292969 L 491.390625 368.792969 Z M 190.015625 299.78125 L 190.015625 511.40625 C 190.015625 513.351562 190.273438 515.238281 190.746094 517.039062 L 316.855469 368.800781 Z M 471.652344 379.859375 L 409.515625 414.703125 C 407.84375 415.640625 405.984375 416.109375 404.128906 416.109375 C 402.269531 416.109375 400.414062 415.640625 398.742188 414.703125 L 336.597656 379.867188 L 206.359375 532.695312 C 208.175781 533.179688 210.082031 533.441406 212.054688 533.441406 L 595.949219 533.441406 C 596.089844 533.441406 596.230469 533.433594 596.375 533.433594 Z M 471.652344 379.859375 " fill-opacity="1" fill-rule="nonzero"/></svg>