<svg xmlns="http://www.w3.org/2000/svg" xmlns:xlink="http://www.w3.org/1999/xlink" width="1080" zoomAndPan="magnify" viewBox="0 0 810 809.999993" height="1080" preserveAspectRatio="xMidYMid meet" version="1.0"><defs><clipPath id="cae62abbe5"><path d="M 62.625 62.625 L 747.375 62.625 L 747.375 747.375 L 62.625 747.375 Z M 62.625 62.625 " clip-rule="nonzero"/></clipPath></defs><path fill="#bb8a7b" d="M 405 329.113281 C 363.203125 329.113281 329.113281 363.203125 329.113281 405 C 329.113281 446.796875 363.203125 480.886719 405 480.886719 C 446.796875 480.886719 480.886719 446.796875 480.886719 405 C 480.886719 363.203125 446.796875 329.113281 405 329.113281 Z M 405 329.113281 " fill-opacity="1" fill-rule="nonzero"/><path fill="#bb8a7b" d="M 506.972656 218.84375 L 303.027344 218.84375 C 256.785156 218.84375 218.84375 256.488281 218.84375 303.027344 L 218.84375 506.972656 C 218.84375 553.214844 256.488281 591.15625 303.027344 591.15625 L 506.972656 591.15625 C 553.214844 591.15625 591.15625 553.511719 591.15625 506.972656 L 591.15625 303.027344 C 590.859375 256.488281 553.214844 218.84375 506.972656 218.84375 Z M 405 519.125 C 341.859375 519.125 290.578125 467.84375 290.578125 404.703125 C 290.578125 341.5625 341.859375 290.28125 405 290.28125 C 468.140625 290.28125 519.421875 341.5625 519.421875 404.703125 C 519.125 467.84375 467.84375 519.125 405 519.125 Z M 527.425781 309.550781 C 512.308594 309.550781 499.855469 297.101562 499.855469 281.980469 C 499.855469 266.863281 512.308594 254.414062 527.425781 254.414062 C 542.542969 254.414062 554.992188 266.863281 554.992188 281.980469 C 554.992188 297.394531 542.839844 309.550781 527.425781 309.550781 Z M 527.425781 309.550781 " fill-opacity="1" fill-rule="nonzero"/><g clip-path="url(#cae62abbe5)"><path fill="#bb8a7b" d="M 405 62.625 C 215.878906 62.625 62.625 215.878906 62.625 405 C 62.625 594.121094 215.878906 747.375 405 747.375 C 594.121094 747.375 747.375 594.121094 747.375 405 C 747.078125 215.878906 593.824219 62.625 405 62.625 Z M 629.394531 506.972656 C 629.394531 574.558594 574.261719 629.691406 506.675781 629.691406 L 303.027344 629.691406 C 235.441406 629.691406 180.308594 574.558594 180.308594 506.972656 L 180.308594 303.027344 C 180.308594 235.441406 235.441406 180.308594 303.027344 180.308594 L 506.972656 180.308594 C 574.558594 180.308594 629.691406 235.441406 629.691406 303.027344 L 629.691406 506.972656 Z M 629.394531 506.972656 " fill-opacity="1" fill-rule="nonzero"/></g></svg>