<svg xmlns="http://www.w3.org/2000/svg" xmlns:xlink="http://www.w3.org/1999/xlink" width="1080" zoomAndPan="magnify" viewBox="0 0 810 809.999993" height="1080" preserveAspectRatio="xMidYMid meet" version="1.0"><defs><clipPath id="f7b3c09713"><path d="M 62.625 62.625 L 747.375 62.625 L 747.375 747.375 L 62.625 747.375 Z M 62.625 62.625 " clip-rule="nonzero"/></clipPath></defs><path fill="#bb8a7b" d="M 397.214844 607.054688 L 397.214844 505.203125 C 374.125 505.878906 351.5 509.480469 329.34375 516.011719 C 333.304688 524.695312 337.710938 533.144531 342.570312 541.359375 C 347.429688 549.574219 352.710938 557.507812 358.414062 565.160156 C 364.121094 572.808594 370.214844 580.136719 376.699219 587.140625 C 383.183594 594.140625 390.023438 600.78125 397.214844 607.054688 Z M 397.214844 607.054688 " fill-opacity="1" fill-rule="nonzero"/><path fill="#bb8a7b" d="M 314.597656 520.773438 C 294.210938 528.101562 275.003906 537.78125 256.984375 549.808594 C 290.417969 583.332031 330.167969 603.574219 378.070312 610.535156 C 364.71875 597.742188 352.703125 583.800781 342.023438 568.703125 C 331.347656 553.601562 322.207031 537.628906 314.597656 520.773438 Z M 314.597656 520.773438 " fill-opacity="1" fill-rule="nonzero"/><path fill="#bb8a7b" d="M 305.621094 396.847656 L 397.214844 396.847656 L 397.214844 312.214844 C 373.027344 311.574219 349.304688 307.910156 326.046875 301.226562 C 319.71875 316.394531 314.835938 332.015625 311.402344 348.089844 C 307.96875 364.164062 306.042969 380.417969 305.621094 396.847656 Z M 305.621094 396.847656 " fill-opacity="1" fill-rule="nonzero"/><path fill="#bb8a7b" d="M 332.640625 286.84375 C 348.121094 292.25 387.964844 298.019531 397.214844 296.277344 L 397.214844 202.578125 C 369.738281 226.851562 348.394531 254.605469 332.640625 286.84375 Z M 332.640625 286.84375 " fill-opacity="1" fill-rule="nonzero"/><path fill="#bb8a7b" d="M 492.746094 282.082031 C 504.929688 279.242188 536.070312 264.3125 548.710938 255.246094 C 516.195312 224.5625 478 205.875 432.386719 199.191406 C 457.847656 223.921875 477.816406 251.214844 492.746094 282.082031 Z M 492.746094 282.082031 " fill-opacity="1" fill-rule="nonzero"/><path fill="#bb8a7b" d="M 359.84375 493.386719 C 372.117188 491.464844 384.574219 490.640625 397.121094 489.265625 L 397.121094 412.878906 L 305.621094 412.878906 C 306.003906 427.96875 307.664062 442.917969 310.601562 457.726562 C 313.539062 472.535156 317.710938 486.984375 323.117188 501.082031 C 335.753906 498.425781 347.753906 495.3125 359.84375 493.386719 Z M 359.84375 493.386719 " fill-opacity="1" fill-rule="nonzero"/><path fill="#bb8a7b" d="M 343.90625 238.574219 C 353.890625 224.835938 365.523438 212.289062 376.332031 199.464844 C 332.550781 205.816406 294.292969 224.441406 261.566406 255.335938 C 278.816406 266.355469 297.105469 275.238281 316.429688 281.992188 C 325.773438 267.0625 334.015625 252.222656 343.90625 238.574219 Z M 343.90625 238.574219 " fill-opacity="1" fill-rule="nonzero"/><path fill="#bb8a7b" d="M 310.75 297.746094 L 249.75 267.703125 C 217.875 304.246094 200.382812 347.386719 197.90625 396.847656 L 290.140625 396.847656 C 290.617188 379.851562 292.585938 363.03125 296.050781 346.382812 C 299.511719 329.734375 304.410156 313.523438 310.75 297.746094 Z M 310.75 297.746094 " fill-opacity="1" fill-rule="nonzero"/><path fill="#bb8a7b" d="M 290.140625 412.96875 L 197.90625 412.96875 C 200.289062 460.230469 216.316406 501.8125 246.453125 538.269531 C 265.90625 525.140625 286.667969 514.574219 308.734375 506.578125 C 303.050781 491.601562 298.648438 476.261719 295.527344 460.550781 C 292.40625 444.839844 290.613281 428.980469 290.140625 412.96875 Z M 290.140625 412.96875 " fill-opacity="1" fill-rule="nonzero"/><path fill="#bb8a7b" d="M 432.386719 610.535156 C 480.199219 603.574219 520.039062 583.421875 553.472656 549.808594 C 535.464844 537.714844 516.230469 528.070312 495.769531 520.867188 C 488.183594 537.707031 479.058594 553.671875 468.398438 568.753906 C 457.738281 583.839844 445.734375 597.765625 432.386719 610.535156 Z M 432.386719 610.535156 " fill-opacity="1" fill-rule="nonzero"/><path fill="#bb8a7b" d="M 413.152344 396.847656 L 504.746094 396.847656 C 504.34375 380.414062 502.425781 364.160156 498.992188 348.085938 C 495.558594 332.007812 490.667969 316.386719 484.320312 301.226562 C 460.6875 308.09375 437.148438 311.390625 413.152344 312.398438 Z M 413.152344 396.847656 " fill-opacity="1" fill-rule="nonzero"/><path fill="#bb8a7b" d="M 514.730469 460.6875 C 511.613281 476.167969 506.761719 491.28125 503.003906 505.570312 L 564.921875 537.167969 C 594.140625 501.628906 610.261719 460.046875 612.457031 412.96875 L 521.230469 412.96875 C 519.125 429.179688 517.75 445.117188 514.730469 460.6875 Z M 514.730469 460.6875 " fill-opacity="1" fill-rule="nonzero"/><g clip-path="url(#f7b3c09713)"><path fill="#bb8a7b" d="M 405 62.625 C 215.953125 62.625 62.625 215.953125 62.625 405 C 62.625 594.046875 215.953125 747.375 405 747.375 C 594.046875 747.375 747.375 594.046875 747.375 405 C 747.375 215.953125 594.046875 62.625 405 62.625 Z M 628.121094 417.914062 L 627.296875 422.585938 C 626.289062 430.554688 625.648438 438.707031 624.089844 446.675781 C 614.015625 498.148438 588.734375 540.925781 548.894531 574.996094 C 541.410156 581.425781 533.523438 587.316406 525.234375 592.664062 C 516.945312 598.015625 508.328125 602.777344 499.390625 606.949219 C 490.449219 611.121094 481.265625 614.664062 471.839844 617.582031 C 462.417969 620.496094 452.835938 622.757812 443.101562 624.367188 C 434.585938 625.832031 425.976562 626.65625 417.363281 627.847656 L 393 627.847656 L 389.246094 627.113281 C 380.636719 626.015625 371.933594 625.371094 363.417969 623.722656 C 306.445312 612.457031 260.007812 583.605469 225.933594 536.800781 C 182.886719 477.542969 171.164062 411.777344 191.769531 341.527344 C 221.082031 241.230469 315.789062 175.925781 420.019531 182.613281 C 468.472656 185.816406 511.429688 203.128906 548.433594 234.453125 C 589.835938 269.441406 615.296875 313.742188 624.824219 367.355469 C 626.199219 375.414062 627.023438 383.660156 628.121094 391.8125 Z M 628.121094 417.914062 " fill-opacity="1" fill-rule="nonzero"/></g><path fill="#bb8a7b" d="M 499.617188 297.746094 C 512.347656 328.976562 519.125 362.226562 520.316406 396.847656 L 612.457031 396.847656 C 609.984375 347.386719 592.582031 304.246094 560.707031 267.703125 Z M 499.617188 297.746094 " fill-opacity="1" fill-rule="nonzero"/><path fill="#bb8a7b" d="M 413.335938 505.203125 L 413.335938 607.054688 C 420.511719 600.777344 427.335938 594.136719 433.804688 587.132812 C 440.273438 580.128906 446.351562 572.800781 452.042969 565.148438 C 457.730469 557.496094 462.996094 549.5625 467.839844 541.351562 C 472.683594 533.136719 477.078125 524.691406 481.023438 516.011719 C 458.933594 509.4375 436.371094 505.832031 413.335938 505.203125 Z M 413.335938 505.203125 " fill-opacity="1" fill-rule="nonzero"/><path fill="#bb8a7b" d="M 413.152344 202.671875 L 413.152344 296.921875 C 435.148438 296.25 456.734375 292.925781 477.90625 286.9375 C 470.042969 270.867188 460.65625 255.742188 449.757812 241.554688 C 438.855469 227.371094 426.652344 214.410156 413.152344 202.671875 Z M 413.152344 202.671875 " fill-opacity="1" fill-rule="nonzero"/><path fill="#bb8a7b" d="M 504.195312 412.878906 L 413.152344 412.878906 L 413.152344 489.816406 C 438.234375 490.535156 462.8125 494.445312 486.882812 501.539062 C 496.960938 479.097656 506.667969 429.273438 504.195312 412.878906 Z M 504.195312 412.878906 " fill-opacity="1" fill-rule="nonzero"/></svg>